<svg width="537" height="480" viewBox="0 0 537 480" fill="none" xmlns="http://www.w3.org/2000/svg">
<path d="M502.739 93.5C521.928 121.478 517.681 157.722 517.681 157.722C517.681 157.722 482.323 148.604 463.135 120.626C443.946 92.6477 448.192 56.4041 448.192 56.4041C448.192 56.4041 483.55 65.5219 502.739 93.5Z" fill="#2F2E41"/>
<path d="M488.932 98.8423C491.177 132.687 516.952 158.536 516.952 158.536C516.952 158.536 539.085 129.513 536.84 95.6681C534.595 61.8235 508.82 35.9742 508.82 35.9742C508.82 35.9742 486.686 64.9977 488.932 98.8423Z" fill="#1B45C8"/>
<path d="M268.62 0.704764L529.146 131.598C531.312 132.687 533.108 134.39 534.311 136.494C535.513 138.598 536.067 141.01 535.903 143.427L520.767 367.483C520.699 368.488 520.383 369.461 519.848 370.314C519.312 371.167 518.573 371.875 517.697 372.373C516.822 372.872 515.836 373.146 514.828 373.171C513.821 373.196 512.823 372.971 511.923 372.516L245.457 236.618L259.137 6.16669C259.201 5.08418 259.533 4.03456 260.104 3.11211C260.674 2.18966 261.465 1.42328 262.405 0.881776C263.346 0.340274 264.406 0.0406191 265.49 0.00972311C266.575 -0.0211728 267.651 0.217657 268.62 0.704764V0.704764Z" fill="#D0CDE1"/>
<path d="M271.619 5.27055L525.745 132.949C527.858 134.011 529.611 135.672 530.783 137.724C531.956 139.777 532.496 142.129 532.337 144.487L517.572 363.04C517.506 364.02 517.198 364.969 516.675 365.801C516.153 366.634 515.432 367.324 514.578 367.81C513.724 368.296 512.762 368.563 511.779 368.588C510.797 368.612 509.823 368.393 508.946 367.95L249.024 235.389L262.368 10.5983C262.431 9.5424 262.755 8.51856 263.312 7.61877C263.868 6.71898 264.639 5.97142 265.557 5.44322C266.474 4.91502 267.508 4.62272 268.566 4.59259C269.624 4.56245 270.673 4.79541 271.619 5.27055V5.27055Z" fill="#3F3D56"/>
<path d="M282.756 22.2292L513.114 137.966C515.029 138.928 516.618 140.434 517.681 142.294C518.743 144.155 519.233 146.287 519.089 148.425L505.705 346.537C505.645 347.425 505.366 348.285 504.892 349.04C504.419 349.794 503.766 350.42 502.991 350.86C502.217 351.301 501.345 351.543 500.454 351.565C499.563 351.588 498.681 351.389 497.886 350.987L262.274 230.825L274.37 27.0587C274.427 26.1015 274.721 25.1735 275.226 24.3578C275.73 23.5422 276.429 22.8645 277.261 22.3857C278.092 21.9069 279.029 21.642 279.988 21.6147C280.947 21.5873 281.898 21.7985 282.756 22.2292V22.2292Z" fill="white"/>
<path d="M45.0607 346.867L305.919 478.15C308.347 479.37 311.027 480.004 313.744 480C316.461 479.996 319.14 479.356 321.564 478.13L514.54 380.235C516.803 377.974 516.487 374.623 515.763 372.107C515.412 370.889 514.934 369.711 514.337 368.593L488.04 354.771L266.943 244.532L253.733 237.524C250.236 235.674 246.342 234.698 242.385 234.682C238.428 234.666 234.526 235.61 231.014 237.433L44.9791 334.003C43.7955 334.614 42.8043 335.541 42.1151 336.681C41.4259 337.82 41.0656 339.128 41.0741 340.46C41.0825 341.791 41.4594 343.095 42.163 344.226C42.8666 345.356 43.8695 346.271 45.0607 346.867V346.867Z" fill="#D0CDE1"/>
<path opacity="0.1" d="M45.0608 346.867L305.919 478.15C308.347 479.37 311.027 480.004 313.744 480C316.461 479.996 319.14 479.356 321.564 478.13L514.54 380.235C516.803 377.974 516.487 374.623 515.764 372.107L323.364 472.044C321.017 473.263 318.414 473.911 315.768 473.933C313.122 473.956 310.508 473.353 308.14 472.174L41.1671 339.258C40.9162 340.776 41.1589 342.334 41.8598 343.704C42.5606 345.073 43.6826 346.182 45.0608 346.867V346.867Z" fill="black"/>
<path opacity="0.1" d="M292.657 386.202L208.178 343.541C206.477 342.682 204.594 342.245 202.689 342.267C200.783 342.288 198.911 342.768 197.23 343.665L148.223 369.829C147.657 370.132 147.185 370.584 146.858 371.136C146.531 371.688 146.362 372.319 146.37 372.961C146.377 373.602 146.561 374.229 146.901 374.774C147.241 375.318 147.723 375.759 148.297 376.047L234.432 419.454C235.862 420.174 237.448 420.532 239.049 420.495C240.651 420.459 242.219 420.028 243.614 419.243L292.817 391.542C293.296 391.272 293.693 390.876 293.963 390.397C294.234 389.918 294.368 389.374 294.352 388.824C294.336 388.274 294.169 387.739 293.87 387.277C293.571 386.815 293.152 386.443 292.657 386.202V386.202Z" fill="black"/>
<path opacity="0.1" d="M491.619 379.067L400.711 427.329C399.665 427.885 398.501 428.181 397.317 428.193C396.132 428.205 394.962 427.932 393.905 427.398L137.052 297.595C136.329 297.229 135.721 296.669 135.298 295.978C134.875 295.286 134.652 294.491 134.656 293.68C134.659 292.87 134.888 292.077 135.318 291.389C135.747 290.701 136.359 290.147 137.086 289.787L225.859 245.879C227.197 245.217 228.671 244.875 230.164 244.88C231.657 244.886 233.128 245.238 234.461 245.909L491.579 375.369C491.92 375.541 492.207 375.803 492.409 376.127C492.612 376.451 492.721 376.824 492.725 377.206C492.729 377.588 492.628 377.963 492.433 378.292C492.238 378.62 491.956 378.888 491.619 379.067Z" fill="black"/>
<path d="M346.591 138.38L346.135 139.291L429.714 181.052L430.17 180.141L346.591 138.38Z" fill="#1B45C8"/>
<path d="M346.584 150.627L346.12 151.533L429.722 194.269L430.186 193.363L346.584 150.627Z" fill="#1B45C8"/>
<path d="M361.887 174.025L361.423 174.933L409.322 199.391L409.786 198.483L361.887 174.025Z" fill="#1B45C8"/>
<path d="M100.201 225.02C100.201 225.02 79.8195 216.145 70.2465 225.52C60.6734 234.895 95.8776 231.809 100.201 225.02Z" fill="#3F3D56"/>
<path d="M65.0077 182.93C71.8569 171.365 85.4076 170.826 85.4076 170.826C85.4076 170.826 98.6121 169.138 107.083 186.752C114.978 203.17 125.874 219.022 108.837 222.865L105.759 213.293L103.854 223.578C101.428 223.752 98.9942 223.794 96.5639 223.702C78.3182 223.114 60.9419 223.875 61.5014 217.332C62.2452 208.634 58.4173 194.058 65.0077 182.93Z" fill="#2F2E41"/>
<path d="M55.4237 392.589C55.4237 392.589 64.0703 408.636 69.6289 408.636C75.1874 408.636 74.5698 419.129 73.3345 421.597C72.0993 424.066 69.0112 429.621 73.9522 437.644C75.678 440.447 75.3693 443.626 74.2367 446.577C71.0635 454.844 58.7198 452.34 59.1136 443.494C59.1179 443.396 59.1232 443.298 59.1294 443.199C59.747 433.324 54.8061 417.894 49.8651 414.191C44.9242 410.488 40.6009 400.613 40.6009 400.613L55.4237 392.589Z" fill="#FFB8B8"/>
<path d="M114.715 388.886C114.715 388.886 106.068 404.933 100.51 404.933C94.9511 404.933 95.5688 415.425 96.804 417.894C98.0392 420.363 101.127 425.918 96.1864 433.941C94.4605 436.744 94.7693 439.923 95.9018 442.874C99.075 451.141 111.419 448.636 111.025 439.79C111.021 439.693 111.015 439.595 111.009 439.496C110.392 429.621 115.332 414.191 120.273 410.488C125.214 406.785 129.538 396.909 129.538 396.909L114.715 388.886Z" fill="#FFB8B8"/>
<path d="M107.921 309.885L111.627 317.908C111.627 317.908 165.977 335.807 161.036 356.792C156.095 377.776 132.008 410.488 128.302 409.253C124.597 408.019 104.833 404.316 104.215 393.823C103.598 383.331 118.421 364.815 118.421 364.815L98.0392 346.299L68.3811 345.682L43.0713 364.815C43.0713 364.815 69.6288 388.269 57.8941 397.527C46.1594 406.785 28.8662 412.957 26.3957 409.253C23.9252 405.55 -3.86751 350.62 0.455805 345.682C4.77912 340.744 48.6299 322.229 48.6299 322.229L60.3646 305.564L106.068 303.095L107.921 309.885Z" fill="#2F2E41"/>
<path d="M96.804 208.047C96.804 208.047 93.7159 228.415 99.892 230.883C106.068 233.352 87.5397 243.844 87.5397 243.844H77.0402L70.2465 229.649C70.2465 229.649 76.4226 218.539 72.7169 208.047C69.0112 197.555 96.804 208.047 96.804 208.047Z" fill="#FFB8B8"/>
<path opacity="0.1" d="M96.804 208.047C96.804 208.047 93.7159 228.415 99.892 230.883C106.068 233.352 87.5397 243.844 87.5397 243.844H77.0402L70.2465 229.649C70.2465 229.649 76.4226 218.539 72.7169 208.047C69.0112 197.555 96.804 208.047 96.804 208.047Z" fill="black"/>
<path d="M101.127 225.329C101.127 225.329 94.3335 232.735 93.0983 233.969C91.8631 235.204 86.3045 241.993 74.5698 232.118C62.8351 222.243 61.5999 233.969 61.5999 233.969V308.033C61.5999 308.033 71.4817 303.713 79.5107 308.033C87.5397 312.353 104.215 306.799 104.215 306.799L107.303 230.266L101.127 225.329Z" fill="#D0CDE1"/>
<path d="M96.5906 225.329C96.5906 225.329 102.362 222.86 107.303 225.329C112.244 227.797 129.538 240.141 128.302 245.696C127.067 251.251 111.009 290.134 122.126 308.65C133.243 327.166 135.096 332.104 135.096 332.104L107.921 317.908C107.921 317.908 86.9221 304.947 88.775 296.923C90.6278 288.9 96.5906 225.329 96.5906 225.329Z" fill="#3F3D56"/>
<path d="M72.092 225.329C72.092 225.329 59.1294 226.563 58.5117 227.797C57.8941 229.032 39.0568 234.278 40.2921 239.833C41.5273 245.388 58.5117 295.072 51.1003 304.33C43.6889 313.588 31.3366 326.549 35.6599 327.783C39.9832 329.018 47.3947 325.932 54.8061 327.783C62.2174 329.635 79.5107 314.205 77.6579 297.541C75.805 280.876 77.6433 229.649 72.092 225.329Z" fill="#3F3D56"/>
<path d="M102.98 343.213V349.385C102.98 349.385 106.068 363.581 96.1864 362.964C86.3045 362.346 92.4807 345.682 92.4807 345.682L93.0983 340.127L102.98 343.213Z" fill="#FFB8B8"/>
<path d="M75.1874 343.831C75.1874 343.831 81.9812 358.026 75.1874 359.26C68.3936 360.495 63.4527 351.237 63.4527 348.768C63.4527 346.299 75.1874 343.831 75.1874 343.831Z" fill="#FFB8B8"/>
<path d="M66.2319 202.184C66.9141 202.184 67.4672 201.078 67.4672 199.715C67.4672 198.351 66.9141 197.246 66.2319 197.246C65.5497 197.246 64.9967 198.351 64.9967 199.715C64.9967 201.078 65.5497 202.184 66.2319 202.184Z" fill="#FFB8B8"/>
<path d="M102.671 202.184C103.354 202.184 103.907 201.078 103.907 199.715C103.907 198.351 103.354 197.246 102.671 197.246C101.989 197.246 101.436 198.351 101.436 199.715C101.436 201.078 101.989 202.184 102.671 202.184Z" fill="#FFB8B8"/>
<path d="M55.4237 233.352C55.4237 233.352 39.9833 233.352 40.6009 239.524C41.2185 245.696 61.5998 351.854 61.5998 351.854C61.5998 351.854 70.2465 343.831 77.6579 345.682L55.4237 233.352Z" fill="#3F3D56"/>
<path d="M115.332 235.204C115.332 235.204 130.773 238.29 130.773 247.548C130.773 256.806 108.539 345.682 105.451 345.682C102.363 345.682 90.6278 343.83 90.6278 340.744C90.6278 337.658 115.332 235.204 115.332 235.204Z" fill="#3F3D56"/>
<path opacity="0.2" d="M111.936 253.411L98.0392 307.719C98.0392 307.719 104.524 260.2 111.936 253.411Z" fill="black"/>
<path opacity="0.2" d="M57.8837 245.78L71.9381 316.785C71.9381 316.785 67.4462 249.876 57.8837 245.78Z" fill="black"/>
<path d="M84.4516 217.922C94.3436 217.922 102.363 209.909 102.363 200.023C102.363 190.138 94.3436 182.125 84.4516 182.125C74.5597 182.125 66.5408 190.138 66.5408 200.023C66.5408 209.909 74.5597 217.922 84.4516 217.922Z" fill="#FFB8B8"/>
<path d="M68.0358 181.815L81.4236 174.808L99.9108 177.674L103.736 194.556L94.2145 194.191L91.5545 187.988V194.088L87.1608 193.92L84.6107 184.045L83.0171 194.556L67.3981 194.238L68.0358 181.815Z" fill="#2F2E41"/>
<path d="M268.788 77.9027L261.406 95.4488L323.718 128.135L344.711 66.7424" fill="#F2F2F2"/>
<path d="M322.282 117.37L349.809 52.6418L286.541 21.5298L259.969 84.6839L322.282 117.37Z" fill="#1B45C8"/>
<path d="M285.045 46.282L284.581 47.1892L332.48 71.6471L332.944 70.7399L285.045 46.282Z" fill="white"/>
<path d="M281.455 54.8939L280.991 55.8011L328.889 80.259L329.353 79.3519L281.455 54.8939Z" fill="white"/>
</svg>
